<svg width="186" height="58" viewBox="0 0 186 58" fill="none" xmlns="http://www.w3.org/2000/svg">
<path d="M26.2116 44.5876C26.2221 43.967 26.2332 43.6026 26.2338 43.253C26.2404 41.3977 26.271 39.7484 26.3237 37.894C26.3042 37.0854 25.9164 36.3108 25.2342 35.7182L18.6169 30.1264C18.3487 29.8263 18.1694 29.4805 18.0929 29.1157C18.0164 28.7509 18.0448 28.3768 18.1757 28.0222C18.7557 26.4427 19.218 24.9779 19.7808 23.2659C20.3141 23.761 21.2182 24.4769 21.4336 24.6622C25.9701 28.4959 27.2056 29.7315 31.7505 33.413C33.2107 34.8555 33.0231 36.1099 33.0525 37.1866L32.7545 54.9258C32.7545 55.109 32.7123 57.4849 32.7045 57.9223L30.8869 56.3867C22.2206 49.0637 14.9351 42.7954 5.80089 35.0762C2.87881 32.608 1.26987 31.7489 0.381311 28.9561C-0.369049 26.5976 -0.0954342 24.5521 1.95474 22.6794L10.2437 15.796L15.3658 11.5428C15.8353 11.1529 19.4844 8.19895 20.7914 7.11328L25.4323 11.0351L32.3771 16.9036C32.6929 17.1611 32.9426 17.4663 33.1119 17.8018C33.2811 18.1373 33.3666 18.4965 33.3633 18.8587C33.3372 20.3786 33.3133 21.6599 33.2923 23.0715C33.2862 23.4454 33.2645 24.7137 33.2517 25.4891L28.9782 21.878C28.0481 21.0887 27.3793 20.5532 26.4641 19.7527C25.515 18.9227 24.7297 18.3116 23.7779 17.4843C22.8677 16.6918 21.6878 15.7355 20.7493 14.9247C20.515 15.1199 20.3313 15.2753 20.1943 15.3836C16.8665 18.1361 13.9311 20.5796 10.595 23.3487C9.56323 24.1886 8.48931 25.0661 8.12023 26.2341C7.8758 26.903 7.83953 27.6102 8.01465 28.2931C8.18977 28.9759 8.57087 29.6135 9.12423 30.1492C14.7908 34.9396 20.0888 39.2796 25.5622 44.04C25.6965 44.1551 25.8075 44.2455 26.2116 44.5876Z" fill="#4489A0"/>
<path d="M44.0493 44.5877C44.0387 43.9672 44.0287 43.6027 44.0271 43.2531C44.0204 41.3978 43.9899 39.7485 43.9371 37.8941C43.9566 37.0855 44.3444 36.311 45.0266 35.7183L51.6439 30.1261C51.9121 29.826 52.0914 29.4802 52.1679 29.1154C52.2444 28.7506 52.2161 28.3765 52.0851 28.0219C51.5057 26.4424 51.0428 24.9775 50.4806 23.2655C49.9472 23.7607 49.0431 24.4766 48.8278 24.6619C44.2907 28.4956 43.0558 29.7312 38.5098 33.4126C37.0507 34.8551 37.2377 36.1096 37.2078 37.1863L37.5058 54.9255C37.5058 55.1086 37.5491 57.4846 37.5558 57.922L39.3739 56.3864C48.0392 49.0633 55.3246 42.7951 64.4599 35.0759C67.3809 32.6077 68.9904 31.7485 69.879 28.9558C70.6299 26.5973 70.3557 24.5518 68.3055 22.679L60.0177 15.7921L54.8956 11.5389C54.4261 11.149 50.7781 8.19505 49.4699 7.10938L44.829 11.0312L37.886 16.9001C37.5703 17.1577 37.3208 17.4629 37.1517 17.7984C36.9827 18.1339 36.8974 18.4931 36.9009 18.8552C36.9258 20.3752 36.9503 21.6565 36.9719 23.0681C36.9769 23.4419 36.9996 24.7103 37.0124 25.4857L41.2859 21.8745C42.215 21.0852 42.8843 20.5498 43.7995 19.7493C44.7491 18.9193 45.5339 18.3081 46.4857 17.4808C47.3959 16.6884 48.5758 15.7321 49.5143 14.9213C49.7491 15.1165 49.9323 15.2718 50.0693 15.3802C53.396 18.1376 56.3325 20.5811 59.667 23.3492C60.6998 24.1891 61.7726 25.0666 62.1417 26.2347C62.3863 26.9035 62.4226 27.6107 62.2476 28.2936C62.0726 28.9765 61.6916 29.614 61.1383 30.1498C55.4667 34.9389 50.1709 39.2815 44.6964 44.0401C44.5643 44.1552 44.4533 44.2456 44.0493 44.5877Z" fill="#4489A0"/>
<path d="M35.1499 -0.00133111L27.1001 6.49219L35.1499 12.9857L43.1997 6.49219L35.1499 -0.00133111Z" fill="#4489A0"/>
<path d="M85.8052 42.4597C83.699 42.4597 82.2605 41.1619 82.2605 38.7921V19.6358C82.2605 16.9835 84.0153 15.4609 87.2781 15.4609C90.4709 15.4609 92.0856 16.8438 92.0856 19.157V26.0981H88.7527V19.3546C88.7527 18.3103 88.1911 17.8302 87.2437 17.8302C86.2962 17.8302 85.664 18.4531 85.664 19.3546V38.567C85.664 39.6113 86.2617 40.09 87.2081 40.09C88.1544 40.09 88.7527 39.4698 88.7527 38.6506V30.4415H87.1402V28.1559H92.0889V42.3191H89.5278L89.0719 40.9078H88.8617C88.2968 42.0081 87.3476 42.4882 85.8052 42.4597Z" fill="#4489A0"/>
<path d="M100.55 40.5154C99.9525 41.7292 98.9717 42.4625 97.3214 42.4625C95.6027 42.4625 94.2343 41.4462 94.2343 39.6678L94.1987 33.2607C94.1987 31.2274 95.1817 29.9299 97.3914 29.2243L100.445 28.2899V22.3055C100.445 21.6559 100.094 21.2047 99.1813 21.2047C98.9982 21.1911 98.8136 21.2105 98.6411 21.2615C98.4687 21.3125 98.3127 21.3938 98.1846 21.4994C98.0566 21.605 97.9598 21.7322 97.9013 21.8717C97.8429 22.0112 97.8242 22.1595 97.8468 22.3055V27.5847H94.6541V22.1346C94.6541 20.3001 96.0225 18.9453 99.1813 18.9453C102.234 18.9453 103.741 20.1876 103.741 22.5302V42.2925H100.827L100.55 40.5154ZM98.8999 31.113C97.8824 31.481 97.5326 32.0474 97.5326 33.0903L97.4971 39.0752C97.4971 39.7248 97.8824 40.1764 98.6558 40.1764C99.4971 40.1764 100.445 39.5833 100.445 38.4536L100.48 30.6618L98.8999 31.113Z" fill="#4489A0"/>
<path d="M121.639 21.624V42.2909H118.34L118.305 22.3577C118.305 21.7348 117.989 21.3126 117.218 21.3126C116.41 21.3126 115.673 21.8496 115.673 22.8089V42.2892H112.375L112.339 22.356C112.339 21.733 112.023 21.3108 111.252 21.3108C110.445 21.3108 109.708 21.8478 109.708 22.8071V42.2874H106.409V19.1061H109.323L109.674 20.9419C110.306 19.8407 111.464 18.9375 112.938 18.9375C114.516 18.9375 115.218 19.5306 115.536 20.8854C116.271 19.7842 117.394 18.9375 118.975 18.9375C120.55 18.9695 121.639 19.7335 121.639 21.624Z" fill="#4489A0"/>
<path d="M133.521 22.8977V30.4354H127.379V38.5101C127.379 39.6113 127.87 40.1755 128.889 40.1755C129.87 40.1755 130.292 39.6954 130.292 38.8202V31.7617H133.52V38.9893C133.52 41.0805 131.73 42.4598 128.922 42.4598C125.73 42.4598 124.01 41.0209 124.01 38.4509V23.1233C124.01 20.3842 125.836 18.9453 128.853 18.9453C132.012 18.9453 133.521 20.4132 133.521 22.8977ZM127.379 22.7566V28.2894H130.257V22.7571C130.257 21.7969 129.906 21.2043 128.853 21.2043C127.837 21.2038 127.379 21.853 127.379 22.7566Z" fill="#4489A0"/>
<path d="M143.934 42.4597C141.828 42.4597 140.39 41.1619 140.39 38.7921V19.6358C140.39 16.9835 142.144 15.4609 145.407 15.4609C148.6 15.4609 150.215 16.8438 150.215 19.157V26.0981H146.882V19.3546C146.882 18.3103 146.32 17.8302 145.373 17.8302C144.426 17.8302 143.792 18.4531 143.792 19.3546V38.567C143.792 39.6113 144.39 40.09 145.337 40.09C146.284 40.09 146.881 39.4698 146.881 38.6506V30.4415H145.269V28.1559H150.217V42.3191H147.652L147.196 40.9078H146.985C146.428 42.0081 145.477 42.4882 143.934 42.4597Z" fill="#4489A0"/>
<path d="M162.039 19.1094V42.2906H159.125L158.809 40.5109C158.142 41.4977 156.949 42.4579 155.371 42.4579C153.862 42.4579 152.702 41.6677 152.702 39.6913V19.1094H156V39.0426C156 39.6922 156.422 40.0877 157.159 40.0877C157.966 40.0877 158.738 39.5507 158.738 38.5914V19.1094H162.039Z" fill="#4489A0"/>
<path d="M173.956 21.7963V31.6495H170.657V22.5282C170.657 21.7389 170.412 21.3145 169.605 21.3145C168.832 21.3145 168.13 21.9641 168.13 23.5454V42.2915H164.832V19.1102H167.744L167.99 20.9461C168.797 19.6468 169.71 18.9688 171.394 18.9688C172.868 18.9719 173.956 19.7914 173.956 21.7963Z" fill="#4489A0"/>
<path d="M185.26 19.1094V42.2906H182.348L182.032 40.5109C181.365 41.4977 180.172 42.4579 178.594 42.4579C177.085 42.4579 175.925 41.6677 175.925 39.6913V19.1094H179.224V39.0426C179.224 39.6922 179.645 40.0877 180.382 40.0877C181.188 40.0877 181.962 39.5507 181.962 38.5914V19.1094H185.26Z" fill="#4489A0"/>
</svg>
