<svg width="186" height="160" viewBox="0 0 186 160" fill="none" xmlns="http://www.w3.org/2000/svg">
<path d="M76.682 80.4793C76.701 79.3593 76.721 78.7016 76.722 78.0705C76.734 74.7218 76.7891 71.7448 76.8843 68.3977C76.8492 66.9382 76.1492 65.5402 74.9179 64.4705L62.974 54.3776C62.4899 53.8359 62.1663 53.2118 62.0282 52.5533C61.8901 51.8948 61.9413 51.2196 62.1776 50.5796C63.2245 47.7287 64.0589 45.0846 65.0747 41.9946C66.0374 42.8883 67.6692 44.1804 68.0579 44.515C76.2462 51.4345 78.4761 53.6648 86.6794 60.3097C89.315 62.9133 88.9764 65.1775 89.0295 67.121L88.4916 99.1395C88.4916 99.47 88.4154 103.759 88.4014 104.548L85.1207 101.776C69.4784 88.5585 56.3284 77.2446 39.8417 63.3117C34.5675 58.8568 31.6634 57.306 30.0596 52.2652C28.7052 48.0083 29.1991 44.3162 32.8995 40.936L47.8607 28.5117L57.1058 20.835C57.9533 20.1311 64.5398 14.7994 66.8989 12.8398L75.2755 19.9186L87.8104 30.5109C88.3805 30.9756 88.8312 31.5266 89.1367 32.1322C89.4421 32.7378 89.5964 33.386 89.5905 34.0398C89.5434 36.7832 89.5003 39.096 89.4623 41.6438C89.4512 42.3186 89.4122 44.6079 89.3891 46.0075L81.6757 39.4895C79.9967 38.0649 78.7896 37.0984 77.1377 35.6536C75.4248 34.1554 74.0073 33.0523 72.2893 31.559C70.6464 30.1287 68.5167 28.4026 66.8227 26.9392C66.4 27.2915 66.0684 27.5719 65.821 27.7675C59.8145 32.7356 54.5163 37.1461 48.4948 42.144C46.6325 43.66 44.6941 45.2438 44.028 47.3521C43.5868 48.5594 43.5213 49.8359 43.8374 51.0684C44.1535 52.301 44.8413 53.4517 45.8401 54.4188C56.068 63.0652 65.6307 70.8987 75.5099 79.4911C75.7523 79.6987 75.9527 79.862 76.682 80.4793Z" fill="white"/>
<path d="M108.88 80.4788C108.86 79.3588 108.842 78.701 108.839 78.0699C108.827 74.7212 108.772 71.7443 108.677 68.3972C108.712 66.9377 109.412 65.5397 110.644 64.4699L122.587 54.3762C123.072 53.8345 123.395 53.2104 123.533 52.552C123.671 51.8935 123.62 51.2183 123.384 50.5783C122.338 47.7273 121.503 45.0833 120.488 41.9932C119.525 42.8869 117.893 44.1791 117.505 44.5136C109.315 51.4332 107.086 53.6635 98.8811 60.3083C96.2475 62.912 96.585 65.1762 96.531 67.1196L97.0689 99.1382C97.0689 99.4687 97.147 103.757 97.1591 104.547L100.441 101.775C116.081 88.5572 129.231 77.2433 145.72 63.3104C150.992 58.8554 153.897 57.3047 155.501 52.2639C156.856 48.0069 156.361 44.3148 152.661 40.9346L137.702 28.5039L128.457 20.8272C127.609 20.1233 121.025 14.7916 118.664 12.832L110.287 19.9108L97.7551 30.5039C97.1853 30.9688 96.7349 31.5198 96.4298 32.1253C96.1247 32.7309 95.9708 33.3791 95.977 34.0328C96.0221 36.7762 96.0661 39.089 96.1052 41.6368C96.1142 42.3116 96.1553 44.6009 96.1783 46.0005L103.892 39.4825C105.569 38.0579 106.777 37.0914 108.429 35.6466C110.143 34.1484 111.559 33.0453 113.277 31.552C114.92 30.1217 117.05 28.3957 118.744 26.9322C119.167 27.2845 119.498 27.5649 119.745 27.7605C125.75 32.7375 131.05 37.148 137.069 42.1443C138.933 43.6603 140.869 45.2441 141.535 47.3524C141.977 48.5596 142.043 49.836 141.727 51.0686C141.411 52.3012 140.723 53.452 139.724 54.419C129.487 63.0631 119.929 70.9015 110.048 79.4905C109.809 79.6982 109.609 79.8614 108.88 80.4788Z" fill="white"/>
<path d="M92.8144 0.000176007L78.2849 11.7207L92.8144 23.4412L107.344 11.7207L92.8144 0.000176007Z" fill="white"/>
<path d="M6.38615 159.997C2.59152 159.997 0 157.64 0 153.336V118.545C0 113.728 3.16151 110.963 9.03977 110.963C14.7918 110.963 17.7009 113.474 17.7009 117.676V130.282H11.6964V118.034C11.6964 116.138 10.6846 115.266 8.97767 115.266C7.27069 115.266 6.1317 116.397 6.1317 118.034V152.927C6.1317 154.824 7.20858 155.693 8.91355 155.693C10.6185 155.693 11.6964 154.567 11.6964 153.079V138.17H8.79135V134.019H17.7069V159.742H13.0929L12.2714 157.179H11.8928C10.875 159.177 9.165 160.049 6.38615 159.997Z" fill="white"/>
<path d="M32.9504 156.462C31.8745 158.666 30.1074 159.998 27.1342 159.998C24.0378 159.998 21.5725 158.153 21.5725 154.923L21.5084 143.286C21.5084 139.593 23.2795 137.237 27.2605 135.955L32.7611 134.258V123.39C32.7611 122.21 32.13 121.391 30.4851 121.391C30.1552 121.366 29.8227 121.401 29.512 121.494C29.2012 121.586 28.9202 121.734 28.6896 121.926C28.4589 122.118 28.2845 122.349 28.1791 122.602C28.0738 122.855 28.0402 123.125 28.0809 123.39V132.978H22.3289V123.079C22.3289 119.748 24.7942 117.287 30.4851 117.287C35.9847 117.287 38.6994 119.543 38.6994 123.798V159.689H33.4503L32.9504 156.462ZM29.9782 139.386C28.145 140.054 27.5149 141.083 27.5149 142.977L27.4508 153.846C27.4508 155.026 28.145 155.846 29.5384 155.846C31.0541 155.846 32.7611 154.769 32.7611 152.717L32.8252 138.566L29.9782 139.386Z" fill="white"/>
<path d="M70.942 122.157V159.691H64.9997L64.9356 123.489C64.9356 122.358 64.3666 121.591 62.9771 121.591C61.5226 121.591 60.1953 122.566 60.1953 124.308V159.688H54.2519L54.1878 123.486C54.1878 122.355 53.6188 121.588 52.2294 121.588C50.7748 121.588 49.4475 122.563 49.4475 124.305V159.685H43.5042V117.584H48.7543L49.3874 120.918C50.5254 118.918 52.611 117.277 55.2667 117.277C58.1106 117.277 59.3738 118.355 59.9468 120.815C61.2722 118.815 63.2947 117.277 66.1427 117.277C68.9816 117.336 70.942 118.723 70.942 122.157Z" fill="white"/>
<path d="M92.3517 124.465V138.155H81.2864V152.82C81.2864 154.82 82.1719 155.845 84.0071 155.845C85.7752 155.845 86.5346 154.973 86.5346 153.383V140.564H92.3507V153.69C92.3507 157.488 89.1251 159.993 84.0673 159.993C78.3152 159.993 75.2168 157.38 75.2168 152.713V124.875C75.2168 119.9 78.5065 117.287 83.942 117.287C89.634 117.287 92.3517 119.953 92.3517 124.465ZM81.2864 124.209V134.258H86.4724V124.21C86.4724 122.466 85.8393 121.39 83.943 121.39C82.1108 121.389 81.2864 122.568 81.2864 124.209Z" fill="white"/>
<path d="M111.111 159.997C107.316 159.997 104.726 157.64 104.726 153.336V118.545C104.726 113.728 107.885 110.963 113.765 110.963C119.517 110.963 122.426 113.474 122.426 117.676V130.282H116.421V118.034C116.421 116.138 115.409 115.266 113.704 115.266C111.998 115.266 110.856 116.397 110.856 118.034V152.927C110.856 154.824 111.932 155.693 113.638 155.693C115.344 155.693 116.42 154.567 116.42 153.079V138.17H113.515V134.019H122.431V159.742H117.809L116.987 157.179H116.607C115.605 159.177 113.891 160.049 111.111 159.997Z" fill="white"/>
<path d="M143.728 117.594V159.695H138.479L137.91 156.462C136.708 158.255 134.559 159.999 131.715 159.999C128.996 159.999 126.906 158.563 126.906 154.974V117.594H132.849V153.796C132.849 154.976 133.609 155.694 134.937 155.694C136.391 155.694 137.78 154.719 137.78 152.976V117.594H143.728Z" fill="white"/>
<path d="M165.198 122.465V140.36H159.254V123.795C159.254 122.361 158.812 121.59 157.358 121.59C155.966 121.59 154.702 122.77 154.702 125.642V159.688H148.759V117.587H154.006L154.448 120.921C155.903 118.562 157.547 117.33 160.582 117.33C163.236 117.336 165.198 118.824 165.198 122.465Z" fill="white"/>
<path d="M185.565 117.594V159.695H180.317L179.748 156.462C178.546 158.255 176.398 159.999 173.554 159.999C170.836 159.999 168.745 158.563 168.745 154.974V117.594H174.689V153.796C174.689 154.976 175.448 155.694 176.776 155.694C178.228 155.694 179.621 154.719 179.621 152.976V117.594H185.565Z" fill="white"/>
</svg>
